<svg width="130" height="43" viewBox="0 0 130 43" fill="none" xmlns="http://www.w3.org/2000/svg">
<g clip-path="url(#clip0_7047_108319)">
<path fill-rule="evenodd" clip-rule="evenodd" d="M39.3248 0.641153C39.7074 1.06859 39.92 1.53877 39.92 2.13717C39.92 2.73559 39.7074 3.20576 39.3248 3.6332C38.8997 4.06064 38.4321 4.27435 37.837 4.27435C37.2418 4.27435 36.7317 4.06064 36.3491 3.6332C35.9665 3.20576 35.7539 2.73559 35.7539 2.13717C35.7539 1.53877 35.9665 1.06859 36.3491 0.641153C36.7742 0.213717 37.2418 0 37.837 0C38.4321 0 38.9422 0.213717 39.3248 0.641153ZM35.839 2.13721C35.839 2.69287 36.0515 3.16305 36.434 3.59046C36.0514 3.20576 35.839 2.69287 35.839 2.13721Z" fill="black"/>
<path d="M1.99804 2.22379H30.5939V0.214844H0V2.22379H1.99804Z" fill="black"/>
<path d="M1.99804 2.22266V40.9911H128.002V2.22269H130V43H1.19034H0V2.22266H1.99804Z" fill="black"/>
<path fill-rule="evenodd" clip-rule="evenodd" d="M98.6271 15.5603H101.22V14.0216C101.22 11.9699 100.753 10.4312 99.8597 9.36257C98.9245 8.25122 97.5213 7.73828 95.6509 7.73828C93.7805 7.73828 92.3773 8.29398 91.4422 9.36257C90.5492 10.4312 90.082 11.9699 90.082 14.0216V29.11C90.082 31.1617 90.5492 32.7005 91.4422 33.7691C92.3773 34.8804 93.7805 35.3933 95.6509 35.3933H95.6655L95.6932 35.3934C97.5635 35.3934 98.9245 34.8377 99.8597 33.7691C100.189 33.3912 100.454 32.9439 100.658 32.4268C101.029 31.5234 101.22 30.4215 101.22 29.11V20.6468H96.5861V22.9122H98.7116V29.452C98.7116 31.8457 97.6911 33.1707 95.7785 33.1707C93.9325 33.1707 92.8738 31.8806 92.8453 29.5469C92.8453 29.5155 92.8453 29.4838 92.8453 29.452V13.7224C92.8453 12.4401 93.1427 11.457 93.6952 10.8158C93.709 10.7984 93.7228 10.7813 93.7367 10.7645C94.2372 10.2288 94.8912 9.96092 95.7362 9.96092C96.6283 9.96092 97.3092 10.2601 97.8187 10.8586C98.372 11.4997 98.6271 12.4828 98.6271 13.7224V15.5603ZM95.6509 7.78102C93.7805 7.78102 92.4204 8.33665 91.4844 9.40525C90.6345 10.4738 90.1665 12.0127 90.1665 14.0216V29.11C90.1665 31.1617 90.5923 32.7005 91.4844 33.7264C91.5551 33.8063 91.6274 33.8834 91.7022 33.9575C91.642 33.8966 91.5835 33.8338 91.5275 33.7691C90.6768 32.7005 90.2096 31.1618 90.2096 29.1528V14.0643C90.2096 12.0127 90.6345 10.4739 91.5275 9.44808C92.4627 8.37949 93.8228 7.82379 95.6932 7.82379C97.4238 7.82379 98.7173 8.29933 99.6419 9.21653C98.7148 8.27134 97.4083 7.78102 95.6509 7.78102ZM96.6283 20.7323H101.134V20.7751H96.6714V22.8268H96.6283V20.7323ZM95.8207 33.2562L95.7972 33.2561C97.6984 33.2473 98.7538 31.8805 98.7538 29.452V22.8695H98.7969V29.452C98.7969 31.8884 97.7342 33.2562 95.8207 33.2562ZM99.9628 9.58309C100.281 10.0131 100.541 10.5139 100.737 11.0857C100.548 10.5067 100.291 10.0059 99.9628 9.58309ZM98.7969 13.7472V13.7651V15.4748V13.7472Z" fill="black"/>
<path fill-rule="evenodd" clip-rule="evenodd" d="M13.0078 28.5934V29.1918C13.0078 31.2435 13.433 32.825 14.3257 33.8509C15.2185 34.9195 16.6213 35.4751 18.4919 35.4751C20.3623 35.4751 21.7652 34.9194 22.7004 33.8082C23.6357 32.7396 24.1033 31.1581 24.1033 29.0636C24.1033 27.3966 23.8483 26.0716 23.2106 24.8747C22.5729 23.5497 21.5101 22.2674 19.7672 20.6004C18.2792 19.1899 17.344 18.1213 16.7914 17.1382C16.1537 16.0696 15.8561 14.9583 15.8561 13.676C15.8561 11.2823 16.8764 10 18.6618 10C19.5546 10 20.2347 10.2992 20.7024 10.8976C21.2125 11.5388 21.4676 12.4791 21.4676 13.7614V14.3171H23.9758V14.0606C23.9758 12.0089 23.5506 10.4274 22.7004 9.40161C21.8077 8.33302 20.4474 7.77734 18.6193 7.77734L18.5976 7.77737L18.5768 7.77734C17.0808 7.77734 15.9783 8.14479 15.173 8.739C13.5131 9.94811 13.0929 12.0982 13.0929 14.0179C13.0929 15.5567 13.3479 16.7535 13.9856 17.993C14.6658 19.2754 15.7285 20.6431 17.4715 22.2674C20.4048 25.0457 21.3401 26.7982 21.3401 29.5338C21.3401 30.2607 21.2581 30.8914 21.0865 31.4183C20.952 31.7752 20.769 32.0741 20.5324 32.3121C20.0222 32.9105 19.3421 33.2097 18.4068 33.2097C17.4036 33.2097 16.6342 32.8335 16.1293 32.1243C15.7535 31.5078 15.5586 30.6657 15.5586 29.6193V28.5934H15.431V28.4225H13.0504V28.5934H13.0078ZM13.0504 28.5934V29.0973V29.0636V28.5934ZM16.1293 32.1243C16.3174 32.4331 16.5509 32.6852 16.8279 32.8781C15.9187 32.3014 15.431 31.1413 15.431 29.491V29.4321C15.4347 30.5783 15.6748 31.4862 16.1293 32.1243ZM21.0865 31.4183C21.287 30.8857 21.3798 30.2237 21.3826 29.4412L21.3826 29.491C21.3826 30.8161 21.085 31.7992 20.5324 32.483C20.3962 32.6325 20.2383 32.7637 20.0599 32.8748C20.2315 32.7537 20.3887 32.6089 20.5324 32.4404C20.7717 32.1626 20.9553 31.8208 21.0865 31.4183ZM15.173 8.739C15.9855 8.14722 17.095 7.78086 18.5976 7.77737C20.3729 7.78168 21.7262 8.33715 22.6155 9.40161C23.4657 10.4274 23.8908 11.9662 23.8908 14.0179V14.068C23.8859 12.034 23.4608 10.507 22.6155 9.48704C21.7228 8.41845 20.3624 7.86281 18.5769 7.86281C14.0905 7.86281 13.1437 11.1674 13.1355 13.9805L13.1354 13.9324C13.1354 12.0479 13.5528 9.93456 15.173 8.739ZM21.5102 13.8042V14.1889L21.5101 13.7757L21.5102 13.8042ZM15.7286 13.7186L15.7287 13.6795C15.7358 14.9433 16.0339 16.0825 16.6638 17.1382C17.259 18.164 18.1942 19.2326 19.6822 20.6431C21.4251 22.2674 22.4879 23.5924 23.1255 24.8747C23.7207 26.0716 23.9758 27.3539 23.9758 29.0209L23.9757 29.0542C23.9705 27.4126 23.7145 26.1445 23.1256 24.9602C22.488 23.6779 21.4251 22.3529 19.6822 20.7286C18.1943 19.3181 17.2591 18.2495 16.6639 17.2236C16.0262 16.1123 15.7286 15.0009 15.7286 13.7186Z" fill="black"/>
<path fill-rule="evenodd" clip-rule="evenodd" d="M51.5664 35.5179H62.6193V33.167H54.2871L62.6619 10.7694V7.77734H51.9915V10.1282H59.9412L51.6089 32.4831L51.5664 35.5179Z" fill="black"/>
<path d="M128.002 2.22382L122.191 2.22379V0.214844H130V2.22382H128.002Z" fill="black"/>
<path fill-rule="evenodd" clip-rule="evenodd" d="M39.2354 35.5216H36.4297V7.73828H39.2354V35.5216Z" fill="black"/>
<path d="M116.395 35.5216H113.59V7.73828H116.395V35.5216Z" fill="black"/>
<path d="M77.7979 35.4786H74.9922V7.69531H77.7979V35.4786Z" fill="black"/>
<path fill-rule="evenodd" clip-rule="evenodd" d="M76.2666 0C76.8618 0 77.3719 0.213717 77.7545 0.641153C78.1796 1.06859 78.3922 1.53877 78.3497 2.13717C78.3497 2.73559 78.1371 3.20576 77.7545 3.6332C77.3294 4.06064 76.8618 4.27435 76.2666 4.27435C75.6714 4.27435 75.1613 4.06064 74.7787 3.6332C74.3961 3.20576 74.1836 2.73559 74.1836 2.13717C74.1836 1.53877 74.3961 1.06859 74.7787 0.641153C75.2038 0.213717 75.6714 0 76.2666 0ZM74.9066 0.683424C75.2892 0.29905 75.7567 0.0855181 76.309 0.0855181C75.7566 0.0855181 75.2892 0.256336 74.9066 0.683424ZM74.9052 3.58939C74.5599 3.24175 74.3534 2.78959 74.3169 2.29587C74.3537 2.78284 74.5601 3.20354 74.9052 3.58939Z" fill="black"/>
<path fill-rule="evenodd" clip-rule="evenodd" d="M114.907 0C115.502 0 116.012 0.213717 116.395 0.641153C116.778 1.06859 116.991 1.53877 116.991 2.13717C116.991 2.73559 116.778 3.20576 116.395 3.6332C115.97 4.06064 115.502 4.27435 114.907 4.27435C114.312 4.27435 113.802 4.06064 113.419 3.6332C113.037 3.20576 112.824 2.73559 112.824 2.13717C112.824 1.53877 113.037 1.06859 113.419 0.641153C113.845 0.213717 114.312 0 114.907 0ZM114.927 4.18878C114.384 4.18297 113.924 3.96987 113.547 3.59048C113.165 3.16305 112.952 2.69287 112.952 2.13721C112.952 1.58154 113.165 1.06862 113.547 0.683928C113.925 0.303819 114.386 0.0906351 114.93 0.0856089C114.922 0.0855278 114.915 0.0854872 114.907 0.0854872C114.355 0.0854872 113.887 0.299205 113.504 0.683897C113.122 1.11133 112.91 1.58151 112.91 2.13717C112.91 2.69284 113.122 3.20576 113.504 3.59046C113.887 3.97515 114.355 4.18887 114.907 4.18887C114.914 4.18887 114.92 4.18883 114.927 4.18878Z" fill="black"/>
</g>
<defs>
<clipPath id="clip0_7047_108319">
<rect width="130" height="43" fill="white"/>
</clipPath>
</defs>
</svg>
